<?xml version="1.0" encoding="UTF-8" standalone="no"?>
<svg width="241.565mm" height="203.994mm"
 xmlns="http://www.w3.org/2000/svg" xmlns:xlink="http://www.w3.org/1999/xlink"  version="1.2" baseProfile="tiny">
<title>Word_Frequency_bar_chart</title>
<desc>Rendered by Tableau</desc>
<defs>
</defs>
<g fill="none" stroke="black" stroke-width="1" fill-rule="evenodd" stroke-linecap="square" stroke-linejoin="bevel" >

<g >
<g fill="#ffffff" fill-opacity="1" stroke="none" transform="matrix(1,0,0,1,0,0)"
font-family="Benton Sans Book" font-size="16" font-weight="400" font-style="normal" 
>
<rect x="0" y="0" width="913" height="771"/>
</g>
</g>

<g >
<g fill="#ffffff" fill-opacity="1" stroke="none" transform="matrix(1,0,0,1,0,0)"
font-family="Benton Sans Book" font-size="16" font-weight="400" font-style="normal" 
>
<rect x="0" y="71" width="913" height="658"/>
</g>
</g>

<clipPath id ="clip1" >
<rect x="-1" y="-1" height="42" width="849" transform="matrix(1,0,0,1,66,689)" />
</clipPath>
<g  clip-path="url(#clip1)" 
>
<g fill="none" stroke="#000000" stroke-opacity="1" stroke-width="1" stroke-linecap="square" stroke-linejoin="bevel" transform="matrix(1,0,0,1,66,689)"
font-family="Benton Sans Book" font-size="16" font-weight="400" font-style="normal" 
>
</g>
</g>

<g  clip-path="url(#clip1)" 
>
<g fill="none" stroke="#f5f5f5" stroke-opacity="1" stroke-width="1" stroke-linecap="butt" stroke-linejoin="bevel" transform="matrix(1,0,0,1,66,689)"
font-family="Benton Sans Book" font-size="16" font-weight="400" font-style="normal" 
>
<polyline fill="none" vector-effect="none" points="0,0 0,5 " />
<polyline fill="none" vector-effect="none" points="141,0 141,5 " />
<polyline fill="none" vector-effect="none" points="282,0 282,5 " />
<polyline fill="none" vector-effect="none" points="423,0 423,5 " />
<polyline fill="none" vector-effect="none" points="564,0 564,5 " />
<polyline fill="none" vector-effect="none" points="705,0 705,5 " />
<polyline fill="none" vector-effect="none" points="847,0 847,5 " />
</g>
</g>

<g  clip-path="url(#clip1)" 
>
<g fill="none" stroke="#f5f5f5" stroke-opacity="1" stroke-width="1" stroke-linecap="butt" stroke-linejoin="bevel" transform="matrix(1,0,0,1,66,689)"
font-family="Benton Sans Book" font-size="16" font-weight="400" font-style="normal" 
>
</g>
</g>

<g  clip-path="url(#clip1)" 
>
<g fill="none" stroke="#666666" stroke-opacity="1" stroke-width="1" stroke-linecap="square" stroke-linejoin="bevel" transform="matrix(1,0,0,1,66,689)"
font-family="Arial" font-size="12" font-weight="400" font-style="normal" 
>
<text fill="#666666" fill-opacity="1" stroke="none" xml:space="preserve" x="36.8594" y="15" font-family="Arial" font-size="12" font-weight="400" font-style="normal" 
 >Community /</text>
</g>
</g>

<g  clip-path="url(#clip1)" 
>
<g fill="none" stroke="#666666" stroke-opacity="1" stroke-width="1" stroke-linecap="square" stroke-linejoin="bevel" transform="matrix(1,0,0,1,66,689)"
font-family="Arial" font-size="12" font-weight="400" font-style="normal" 
>
<text fill="#666666" fill-opacity="1" stroke="none" xml:space="preserve" x="35.5156" y="29" font-family="Arial" font-size="12" font-weight="400" font-style="normal" 
 >Communities</text>
</g>
</g>

<g  clip-path="url(#clip1)" 
>
<g fill="none" stroke="#666666" stroke-opacity="1" stroke-width="1" stroke-linecap="square" stroke-linejoin="bevel" transform="matrix(1,0,0,1,66,689)"
font-family="Arial" font-size="12" font-weight="400" font-style="normal" 
>
<text fill="#666666" fill-opacity="1" stroke="none" xml:space="preserve" x="195.672" y="15" font-family="Arial" font-size="12" font-weight="400" font-style="normal" 
 >Public</text>
</g>
</g>

<g  clip-path="url(#clip1)" 
>
<g fill="none" stroke="#666666" stroke-opacity="1" stroke-width="1" stroke-linecap="square" stroke-linejoin="bevel" transform="matrix(1,0,0,1,66,689)"
font-family="Arial" font-size="12" font-weight="400" font-style="normal" 
>
<text fill="#666666" fill-opacity="1" stroke="none" xml:space="preserve" x="333.656" y="15" font-family="Arial" font-size="12" font-weight="400" font-style="normal" 
 >Access</text>
</g>
</g>

<g  clip-path="url(#clip1)" 
>
<g fill="none" stroke="#666666" stroke-opacity="1" stroke-width="1" stroke-linecap="square" stroke-linejoin="bevel" transform="matrix(1,0,0,1,66,689)"
font-family="Arial" font-size="12" font-weight="400" font-style="normal" 
>
<text fill="#666666" fill-opacity="1" stroke="none" xml:space="preserve" x="479.828" y="15" font-family="Arial" font-size="12" font-weight="400" font-style="normal" 
 >Open</text>
</g>
</g>

<g  clip-path="url(#clip1)" 
>
<g fill="none" stroke="#666666" stroke-opacity="1" stroke-width="1" stroke-linecap="square" stroke-linejoin="bevel" transform="matrix(1,0,0,1,66,689)"
font-family="Arial" font-size="12" font-weight="400" font-style="normal" 
>
<text fill="#666666" fill-opacity="1" stroke="none" xml:space="preserve" x="604.828" y="15" font-family="Arial" font-size="12" font-weight="400" font-style="normal" 
 >Engagment</text>
</g>
</g>

<g  clip-path="url(#clip1)" 
>
<g fill="none" stroke="#666666" stroke-opacity="1" stroke-width="1" stroke-linecap="square" stroke-linejoin="bevel" transform="matrix(1,0,0,1,66,689)"
font-family="Arial" font-size="12" font-weight="400" font-style="normal" 
>
<text fill="#666666" fill-opacity="1" stroke="none" xml:space="preserve" x="743.922" y="15" font-family="Arial" font-size="12" font-weight="400" font-style="normal" 
 >Stakeholder</text>
</g>
</g>

<g >
<g fill="none" stroke="#666666" stroke-opacity="1" stroke-width="1" stroke-linecap="square" stroke-linejoin="bevel" transform="matrix(1,0,0,1,66,689)"
font-family="Arial" font-size="12" font-weight="400" font-style="normal" 
>
</g>
</g>

<clipPath id ="clip2" >
<rect x="-1" y="-1" height="620" width="68" transform="matrix(1,0,0,1,0,71)" />
</clipPath>
<g  clip-path="url(#clip2)" 
>
<g fill="none" stroke="#666666" stroke-opacity="1" stroke-width="1" stroke-linecap="square" stroke-linejoin="bevel" transform="matrix(1,0,0,1,0,71)"
font-family="Arial" font-size="12" font-weight="400" font-style="normal" 
>
</g>
</g>

<g  clip-path="url(#clip2)" 
>
<g fill="none" stroke="#f5f5f5" stroke-opacity="1" stroke-width="1" stroke-linecap="butt" stroke-linejoin="bevel" transform="matrix(1,0,0,1,0,71)"
font-family="Arial" font-size="12" font-weight="400" font-style="normal" 
>
<polyline fill="none" vector-effect="none" points="61,618 66,618 " />
<polyline fill="none" vector-effect="none" points="61,563 66,563 " />
<polyline fill="none" vector-effect="none" points="61,508 66,508 " />
<polyline fill="none" vector-effect="none" points="61,453 66,453 " />
<polyline fill="none" vector-effect="none" points="61,398 66,398 " />
<polyline fill="none" vector-effect="none" points="61,343 66,343 " />
<polyline fill="none" vector-effect="none" points="61,288 66,288 " />
<polyline fill="none" vector-effect="none" points="61,232 66,232 " />
<polyline fill="none" vector-effect="none" points="61,177 66,177 " />
<polyline fill="none" vector-effect="none" points="61,122 66,122 " />
<polyline fill="none" vector-effect="none" points="61,67 66,67 " />
<polyline fill="none" vector-effect="none" points="61,12 66,12 " />
</g>
</g>

<g  clip-path="url(#clip2)" 
>
<g fill="none" stroke="#666666" stroke-opacity="1" stroke-width="1" stroke-linecap="square" stroke-linejoin="bevel" transform="matrix(1,0,0,1,0,71)"
font-family="Arial" font-size="12" font-weight="400" font-style="normal" 
>
<text fill="#666666" fill-opacity="1" stroke="none" xml:space="preserve" x="52.3281" y="615" font-family="Arial" font-size="12" font-weight="400" font-style="normal" 
 >0</text>
</g>
</g>

<g  clip-path="url(#clip2)" 
>
<g fill="none" stroke="#666666" stroke-opacity="1" stroke-width="1" stroke-linecap="square" stroke-linejoin="bevel" transform="matrix(1,0,0,1,0,71)"
font-family="Arial" font-size="12" font-weight="400" font-style="normal" 
>
<text fill="#666666" fill-opacity="1" stroke="none" xml:space="preserve" x="38.9844" y="567" font-family="Arial" font-size="12" font-weight="400" font-style="normal" 
 >500</text>
</g>
</g>

<g  clip-path="url(#clip2)" 
>
<g fill="none" stroke="#666666" stroke-opacity="1" stroke-width="1" stroke-linecap="square" stroke-linejoin="bevel" transform="matrix(1,0,0,1,0,71)"
font-family="Arial" font-size="12" font-weight="400" font-style="normal" 
>
<text fill="#666666" fill-opacity="1" stroke="none" xml:space="preserve" x="32.3125" y="512" font-family="Arial" font-size="12" font-weight="400" font-style="normal" 
 >1000</text>
</g>
</g>

<g  clip-path="url(#clip2)" 
>
<g fill="none" stroke="#666666" stroke-opacity="1" stroke-width="1" stroke-linecap="square" stroke-linejoin="bevel" transform="matrix(1,0,0,1,0,71)"
font-family="Arial" font-size="12" font-weight="400" font-style="normal" 
>
<text fill="#666666" fill-opacity="1" stroke="none" xml:space="preserve" x="32.3125" y="457" font-family="Arial" font-size="12" font-weight="400" font-style="normal" 
 >1500</text>
</g>
</g>

<g  clip-path="url(#clip2)" 
>
<g fill="none" stroke="#666666" stroke-opacity="1" stroke-width="1" stroke-linecap="square" stroke-linejoin="bevel" transform="matrix(1,0,0,1,0,71)"
font-family="Arial" font-size="12" font-weight="400" font-style="normal" 
>
<text fill="#666666" fill-opacity="1" stroke="none" xml:space="preserve" x="32.3125" y="402" font-family="Arial" font-size="12" font-weight="400" font-style="normal" 
 >2000</text>
</g>
</g>

<g  clip-path="url(#clip2)" 
>
<g fill="none" stroke="#666666" stroke-opacity="1" stroke-width="1" stroke-linecap="square" stroke-linejoin="bevel" transform="matrix(1,0,0,1,0,71)"
font-family="Arial" font-size="12" font-weight="400" font-style="normal" 
>
<text fill="#666666" fill-opacity="1" stroke="none" xml:space="preserve" x="32.3125" y="347" font-family="Arial" font-size="12" font-weight="400" font-style="normal" 
 >2500</text>
</g>
</g>

<g  clip-path="url(#clip2)" 
>
<g fill="none" stroke="#666666" stroke-opacity="1" stroke-width="1" stroke-linecap="square" stroke-linejoin="bevel" transform="matrix(1,0,0,1,0,71)"
font-family="Arial" font-size="12" font-weight="400" font-style="normal" 
>
<text fill="#666666" fill-opacity="1" stroke="none" xml:space="preserve" x="32.3125" y="292" font-family="Arial" font-size="12" font-weight="400" font-style="normal" 
 >3000</text>
</g>
</g>

<g  clip-path="url(#clip2)" 
>
<g fill="none" stroke="#666666" stroke-opacity="1" stroke-width="1" stroke-linecap="square" stroke-linejoin="bevel" transform="matrix(1,0,0,1,0,71)"
font-family="Arial" font-size="12" font-weight="400" font-style="normal" 
>
<text fill="#666666" fill-opacity="1" stroke="none" xml:space="preserve" x="32.3125" y="236" font-family="Arial" font-size="12" font-weight="400" font-style="normal" 
 >3500</text>
</g>
</g>

<g  clip-path="url(#clip2)" 
>
<g fill="none" stroke="#666666" stroke-opacity="1" stroke-width="1" stroke-linecap="square" stroke-linejoin="bevel" transform="matrix(1,0,0,1,0,71)"
font-family="Arial" font-size="12" font-weight="400" font-style="normal" 
>
<text fill="#666666" fill-opacity="1" stroke="none" xml:space="preserve" x="32.3125" y="181" font-family="Arial" font-size="12" font-weight="400" font-style="normal" 
 >4000</text>
</g>
</g>

<g  clip-path="url(#clip2)" 
>
<g fill="none" stroke="#666666" stroke-opacity="1" stroke-width="1" stroke-linecap="square" stroke-linejoin="bevel" transform="matrix(1,0,0,1,0,71)"
font-family="Arial" font-size="12" font-weight="400" font-style="normal" 
>
<text fill="#666666" fill-opacity="1" stroke="none" xml:space="preserve" x="32.3125" y="126" font-family="Arial" font-size="12" font-weight="400" font-style="normal" 
 >4500</text>
</g>
</g>

<g  clip-path="url(#clip2)" 
>
<g fill="none" stroke="#666666" stroke-opacity="1" stroke-width="1" stroke-linecap="square" stroke-linejoin="bevel" transform="matrix(1,0,0,1,0,71)"
font-family="Arial" font-size="12" font-weight="400" font-style="normal" 
>
<text fill="#666666" fill-opacity="1" stroke="none" xml:space="preserve" x="32.3125" y="71" font-family="Arial" font-size="12" font-weight="400" font-style="normal" 
 >5000</text>
</g>
</g>

<g  clip-path="url(#clip2)" 
>
<g fill="none" stroke="#666666" stroke-opacity="1" stroke-width="1" stroke-linecap="square" stroke-linejoin="bevel" transform="matrix(1,0,0,1,0,71)"
font-family="Arial" font-size="12" font-weight="400" font-style="normal" 
>
<text fill="#666666" fill-opacity="1" stroke="none" xml:space="preserve" x="32.3125" y="16" font-family="Arial" font-size="12" font-weight="400" font-style="normal" 
 >5500</text>
</g>
</g>

<g  clip-path="url(#clip2)" 
>
<g fill="none" stroke="#666666" stroke-opacity="1" stroke-width="1" stroke-linecap="square" stroke-linejoin="bevel" transform="matrix(1,0,0,1,0,71)"
font-family="Arial" font-size="12" font-weight="400" font-style="normal" 
>
</g>
</g>

<g  clip-path="url(#clip2)" 
>
<g fill="none" stroke="#333333" stroke-opacity="1" stroke-width="1" stroke-linecap="square" stroke-linejoin="bevel" transform="matrix(0,-1,1,0,17.8594,439.992)"
font-family="Arial" font-size="12" font-weight="400" font-style="normal" 
>
<text fill="#333333" fill-opacity="1" stroke="none" xml:space="preserve" x="0" y="0" font-family="Arial" font-size="12" font-weight="400" font-style="normal" 
 >Frequency of Mentions</text>
</g>
</g>

<g  clip-path="url(#clip2)" 
>
<g fill="none" stroke="#666666" stroke-opacity="1" stroke-width="1" stroke-linecap="square" stroke-linejoin="bevel" transform="matrix(1,0,0,1,0,71)"
font-family="Arial" font-size="12" font-weight="400" font-style="normal" 
>
</g>
</g>

<g >
<g fill="none" stroke="#666666" stroke-opacity="1" stroke-width="1" stroke-linecap="square" stroke-linejoin="bevel" transform="matrix(1,0,0,1,0,71)"
font-family="Arial" font-size="12" font-weight="400" font-style="normal" 
>
</g>
</g>

<g  clip-path="url(#clip2)" 
>
<g fill="none" stroke="#666666" stroke-opacity="1" stroke-width="1" stroke-linecap="square" stroke-linejoin="bevel" transform="matrix(1,0,0,1,66,71)"
font-family="Arial" font-size="12" font-weight="400" font-style="normal" 
>
</g>
</g>

<clipPath id ="clip3" >
<rect x="0" y="0" height="619" width="848" transform="matrix(1,0,0,1,66,71)" />
</clipPath>
<g  clip-path="url(#clip3)" 
>
<g fill="none" stroke="#666666" stroke-opacity="1" stroke-width="1" stroke-linecap="square" stroke-linejoin="bevel" transform="matrix(1,0,0,1,66,71)"
font-family="Arial" font-size="12" font-weight="400" font-style="normal" 
>
</g>
</g>

<clipPath id ="clip4" >
<rect x="0" y="0" height="619" width="848" transform="matrix(1,0,0,1,66,71)" />
</clipPath>
<g  clip-path="url(#clip4)" 
>
<g fill="none" stroke="#666666" stroke-opacity="1" stroke-width="1" stroke-linecap="square" stroke-linejoin="bevel" transform="matrix(1,0,0,1,66,71)"
font-family="Arial" font-size="12" font-weight="400" font-style="normal" 
>
</g>
</g>

<g  clip-path="url(#clip4)" 
>
<g fill="#ffffff" fill-opacity="1" stroke="none" transform="matrix(1,0,0,1,66,71)"
font-family="Arial" font-size="12" font-weight="400" font-style="normal" 
>
<rect x="0" y="0" width="848" height="619"/>
</g>
</g>

<g  clip-path="url(#clip4)" 
>
<g fill="#ffffff" fill-opacity="1" stroke="none" transform="matrix(1,0,0,1,66,71)"
font-family="Arial" font-size="12" font-weight="400" font-style="normal" 
>
<rect x="0" y="0" width="848" height="619"/>
</g>
</g>

<clipPath id ="clip5" >
<rect x="0" y="0" height="619" width="848" transform="matrix(1,0,0,1,66,71)" />
</clipPath>
<g  clip-path="url(#clip5)" 
>
<g fill="none" stroke="#666666" stroke-opacity="1" stroke-width="1" stroke-linecap="square" stroke-linejoin="bevel" transform="matrix(1,0,0,1,66,71)"
font-family="Arial" font-size="12" font-weight="400" font-style="normal" 
>
</g>
</g>

<g  clip-path="url(#clip5)" 
>
<g fill="#ffffff" fill-opacity="1" stroke="none" transform="matrix(1,0,0,1,66,71)"
font-family="Arial" font-size="12" font-weight="400" font-style="normal" 
>
<rect x="0" y="0" width="848" height="619"/>
</g>
</g>

<clipPath id ="clip6" >
<rect x="0" y="0" height="619" width="848" transform="matrix(1,0,0,1,66,71)" />
</clipPath>
<g  clip-path="url(#clip6)" 
>
<g fill="none" stroke="#666666" stroke-opacity="1" stroke-width="1" stroke-linecap="square" stroke-linejoin="bevel" transform="matrix(1,0,0,1,66,71)"
font-family="Arial" font-size="12" font-weight="400" font-style="normal" 
>
</g>
</g>

<clipPath id ="clip7" >
<rect x="0" y="0" height="619" width="848" transform="matrix(1,0,0,1,66,71)" />
</clipPath>
<g  clip-path="url(#clip7)" 
>
<g fill="none" stroke="#666666" stroke-opacity="1" stroke-width="1" stroke-linecap="square" stroke-linejoin="bevel" transform="matrix(1,0,0,1,66,71)"
font-family="Arial" font-size="12" font-weight="400" font-style="normal" 
>
</g>
</g>

<clipPath id ="clip8" >
<rect x="0" y="0" height="619" width="848" transform="matrix(1,0,0,1,66,71)" />
</clipPath>
<g  clip-path="url(#clip8)" 
>
<g fill="none" stroke="#666666" stroke-opacity="1" stroke-width="1" stroke-linecap="square" stroke-linejoin="bevel" transform="matrix(1,0,0,1,66,71)"
font-family="Arial" font-size="12" font-weight="400" font-style="normal" 
>
</g>
</g>

<clipPath id ="clip9" >
<rect x="0" y="0" height="619" width="848" transform="matrix(1,0,0,1,66,71)" />
</clipPath>
<g  clip-path="url(#clip9)" 
>
<g fill="none" stroke="#666666" stroke-opacity="1" stroke-width="1" stroke-linecap="square" stroke-linejoin="bevel" transform="matrix(1,0,0,1,66,71)"
font-family="Arial" font-size="12" font-weight="400" font-style="normal" 
>
</g>
</g>

<g  clip-path="url(#clip9)" 
>
<g fill="#ffffff" fill-opacity="1" stroke="none" transform="matrix(1,0,0,1,66,71)"
font-family="Arial" font-size="12" font-weight="400" font-style="normal" 
>
<rect x="0" y="0" width="848" height="619"/>
</g>
</g>

<clipPath id ="clip10" >
<rect x="0" y="0" height="619" width="848" transform="matrix(1,0,0,1,66,71)" />
</clipPath>
<g  clip-path="url(#clip10)" 
>
<g fill="none" stroke="#666666" stroke-opacity="1" stroke-width="1" stroke-linecap="square" stroke-linejoin="bevel" transform="matrix(1,0,0,1,66,71)"
font-family="Arial" font-size="12" font-weight="400" font-style="normal" 
>
</g>
</g>

<clipPath id ="clip11" >
<rect x="0" y="0" height="618" width="847" transform="matrix(1,0,0,1,66,71)" />
</clipPath>
<g  clip-path="url(#clip11)" 
>
<g fill="none" stroke="#666666" stroke-opacity="1" stroke-width="1" stroke-linecap="square" stroke-linejoin="bevel" transform="matrix(1,0,0,1,66,71)"
font-family="Arial" font-size="12" font-weight="400" font-style="normal" 
>
</g>
</g>

<g  clip-path="url(#clip11)" 
>
<g fill="none" stroke="#f2f2f2" stroke-opacity="1" stroke-width="1" stroke-linecap="square" stroke-linejoin="bevel" transform="matrix(1,0,0,1,66,71)"
font-family="Arial" font-size="12" font-weight="400" font-style="normal" 
>
<polyline fill="none" vector-effect="none" points="0,563 847,563 " />
<polyline fill="none" vector-effect="none" points="0,508 847,508 " />
<polyline fill="none" vector-effect="none" points="0,453 847,453 " />
<polyline fill="none" vector-effect="none" points="0,398 847,398 " />
<polyline fill="none" vector-effect="none" points="0,343 847,343 " />
<polyline fill="none" vector-effect="none" points="0,288 847,288 " />
<polyline fill="none" vector-effect="none" points="0,232 847,232 " />
<polyline fill="none" vector-effect="none" points="0,177 847,177 " />
<polyline fill="none" vector-effect="none" points="0,122 847,122 " />
<polyline fill="none" vector-effect="none" points="0,67 847,67 " />
<polyline fill="none" vector-effect="none" points="0,12 847,12 " />
</g>
</g>

<clipPath id ="clip12" >
<rect x="0" y="0" height="619" width="848" transform="matrix(1,0,0,1,66,71)" />
</clipPath>
<g  clip-path="url(#clip12)" 
>
<g fill="none" stroke="#f2f2f2" stroke-opacity="1" stroke-width="1" stroke-linecap="square" stroke-linejoin="bevel" transform="matrix(1,0,0,1,66,71)"
font-family="Arial" font-size="12" font-weight="400" font-style="normal" 
>
</g>
</g>

<clipPath id ="clip13" >
<rect x="0" y="0" height="618" width="847" transform="matrix(1,0,0,1,66,71)" />
</clipPath>
<g  clip-path="url(#clip13)" 
>
<g fill="none" stroke="#f2f2f2" stroke-opacity="1" stroke-width="1" stroke-linecap="square" stroke-linejoin="bevel" transform="matrix(1,0,0,1,66,71)"
font-family="Arial" font-size="12" font-weight="400" font-style="normal" 
>
</g>
</g>

<g  clip-path="url(#clip13)" 
>
<g fill="none" stroke="#cbcbcb" stroke-opacity="1" stroke-dasharray="1,2" stroke-dashoffset="0" stroke-width="1" stroke-linecap="square" stroke-linejoin="bevel" transform="matrix(1,0,0,1,66,71)"
font-family="Arial" font-size="12" font-weight="400" font-style="normal" 
>
<polyline fill="none" vector-effect="none" points="0,618 847,618 " />
</g>
</g>

<clipPath id ="clip14" >
<rect x="0" y="0" height="619" width="848" transform="matrix(1,0,0,1,66,71)" />
</clipPath>
<g  clip-path="url(#clip14)" 
>
<g fill="none" stroke="#cbcbcb" stroke-opacity="1" stroke-dasharray="1,2" stroke-dashoffset="0" stroke-width="1" stroke-linecap="square" stroke-linejoin="bevel" transform="matrix(1,0,0,1,66,71)"
font-family="Arial" font-size="12" font-weight="400" font-style="normal" 
>
</g>
</g>

<clipPath id ="clip15" >
<rect x="0" y="0" height="618" width="847" transform="matrix(1,0,0,1,66,71)" />
</clipPath>
<g  clip-path="url(#clip15)" 
>
<g fill="none" stroke="#cbcbcb" stroke-opacity="1" stroke-dasharray="1,2" stroke-dashoffset="0" stroke-width="1" stroke-linecap="square" stroke-linejoin="bevel" transform="matrix(1,0,0,1,66,71)"
font-family="Arial" font-size="12" font-weight="400" font-style="normal" 
>
</g>
</g>

<clipPath id ="clip16" >
<rect x="0" y="0" height="619" width="848" transform="matrix(1,0,0,1,66,71)" />
</clipPath>
<g  clip-path="url(#clip16)" 
>
<g fill="none" stroke="#cbcbcb" stroke-opacity="1" stroke-dasharray="1,2" stroke-dashoffset="0" stroke-width="1" stroke-linecap="square" stroke-linejoin="bevel" transform="matrix(1,0,0,1,66,71)"
font-family="Arial" font-size="12" font-weight="400" font-style="normal" 
>
</g>
</g>

<clipPath id ="clip17" >
<rect x="0" y="0" height="619" width="848" transform="matrix(1,0,0,1,66,71)" />
</clipPath>
<g  clip-path="url(#clip17)" 
>
<g fill="none" stroke="#cbcbcb" stroke-opacity="1" stroke-dasharray="1,2" stroke-dashoffset="0" stroke-width="1" stroke-linecap="square" stroke-linejoin="bevel" transform="matrix(1,0,0,1,66,71)"
font-family="Arial" font-size="12" font-weight="400" font-style="normal" 
>
</g>
</g>

<clipPath id ="clip18" >
<rect x="0" y="0" height="618" width="847" transform="matrix(1,0,0,1,66,71)" />
</clipPath>
<g  clip-path="url(#clip18)" 
>
<g fill="none" stroke="#cbcbcb" stroke-opacity="1" stroke-dasharray="1,2" stroke-dashoffset="0" stroke-width="1" stroke-linecap="square" stroke-linejoin="bevel" transform="matrix(1,0,0,1,66,71)"
font-family="Arial" font-size="12" font-weight="400" font-style="normal" 
>
</g>
</g>

<clipPath id ="clip19" >
<rect x="0" y="0" height="619" width="848" transform="matrix(1,0,0,1,66,71)" />
</clipPath>
<g  clip-path="url(#clip19)" 
>
<g fill="none" stroke="#cbcbcb" stroke-opacity="1" stroke-dasharray="1,2" stroke-dashoffset="0" stroke-width="1" stroke-linecap="square" stroke-linejoin="bevel" transform="matrix(1,0,0,1,66,71)"
font-family="Arial" font-size="12" font-weight="400" font-style="normal" 
>
</g>
</g>

<clipPath id ="clip20" >
<rect x="0" y="0" height="618" width="847" transform="matrix(1,0,0,1,66,71)" />
</clipPath>
<g  clip-path="url(#clip20)" 
>
<g fill="none" stroke="#cbcbcb" stroke-opacity="1" stroke-dasharray="1,2" stroke-dashoffset="0" stroke-width="1" stroke-linecap="square" stroke-linejoin="bevel" transform="matrix(1,0,0,1,66,71)"
font-family="Arial" font-size="12" font-weight="400" font-style="normal" 
>
</g>
</g>

<clipPath id ="clip21" >
<rect x="0" y="0" height="619" width="848" transform="matrix(1,0,0,1,66,71)" />
</clipPath>
<g  clip-path="url(#clip21)" 
>
<g fill="none" stroke="#cbcbcb" stroke-opacity="1" stroke-dasharray="1,2" stroke-dashoffset="0" stroke-width="1" stroke-linecap="square" stroke-linejoin="bevel" transform="matrix(1,0,0,1,66,71)"
font-family="Arial" font-size="12" font-weight="400" font-style="normal" 
>
</g>
</g>

<clipPath id ="clip22" >
<rect x="0" y="0" height="618" width="847" transform="matrix(1,0,0,1,66,71)" />
</clipPath>
<g  clip-path="url(#clip22)" 
>
<g fill="none" stroke="#cbcbcb" stroke-opacity="1" stroke-dasharray="1,2" stroke-dashoffset="0" stroke-width="1" stroke-linecap="square" stroke-linejoin="bevel" transform="matrix(1,0,0,1,66,71)"
font-family="Arial" font-size="12" font-weight="400" font-style="normal" 
>
</g>
</g>

<g  clip-path="url(#clip22)" 
>
<g fill="#b9ddf1" fill-opacity="1" stroke="none" transform="matrix(1,0,0,1,66,71)"
font-family="Arial" font-size="12" font-weight="400" font-style="normal" 
>
<rect x="723" y="615" width="106" height="3"/>
</g>
</g>

<g  clip-path="url(#clip22)" 
>
<g fill="#b9ddf1" fill-opacity="1" stroke="none" transform="matrix(1,0,0,1,66,71)"
font-family="Arial" font-size="12" font-weight="400" font-style="normal" 
>
<rect x="723" y="615" width="106" height="3"/>
</g>
</g>

<g  clip-path="url(#clip22)" 
>
<g fill="#b9ddf1" fill-opacity="1" stroke="none" transform="matrix(1,0,0,1,66,71)"
font-family="Arial" font-size="12" font-weight="400" font-style="normal" 
>
<rect x="723" y="615" width="106" height="3"/>
</g>
</g>

<g  clip-path="url(#clip22)" 
>
<g fill="#b8ddf1" fill-opacity="1" stroke="none" transform="matrix(1,0,0,1,66,71)"
font-family="Arial" font-size="12" font-weight="400" font-style="normal" 
>
<rect x="723" y="615" width="106" height="3"/>
</g>
</g>

<g  clip-path="url(#clip22)" 
>
<g fill="#b9ddf1" fill-opacity="1" stroke="none" transform="matrix(1,0,0,1,66,71)"
font-family="Arial" font-size="12" font-weight="400" font-style="normal" 
>
<rect x="582" y="604" width="106" height="14"/>
</g>
</g>

<g  clip-path="url(#clip22)" 
>
<g fill="#b7dcf1" fill-opacity="1" stroke="none" transform="matrix(1,0,0,1,66,71)"
font-family="Arial" font-size="12" font-weight="400" font-style="normal" 
>
<rect x="582" y="604" width="106" height="14"/>
</g>
</g>

<g  clip-path="url(#clip22)" 
>
<g fill="#b8dcf1" fill-opacity="1" stroke="none" transform="matrix(1,0,0,1,66,71)"
font-family="Arial" font-size="12" font-weight="400" font-style="normal" 
>
<rect x="582" y="604" width="106" height="14"/>
</g>
</g>

<g  clip-path="url(#clip22)" 
>
<g fill="#b5daf0" fill-opacity="1" stroke="none" transform="matrix(1,0,0,1,66,71)"
font-family="Arial" font-size="12" font-weight="400" font-style="normal" 
>
<rect x="582" y="604" width="106" height="14"/>
</g>
</g>

<g  clip-path="url(#clip22)" 
>
<g fill="#b9ddf1" fill-opacity="1" stroke="none" transform="matrix(1,0,0,1,66,71)"
font-family="Arial" font-size="12" font-weight="400" font-style="normal" 
>
<rect x="441" y="520" width="106" height="98"/>
</g>
</g>

<g  clip-path="url(#clip22)" 
>
<g fill="#a6d0ea" fill-opacity="1" stroke="none" transform="matrix(1,0,0,1,66,71)"
font-family="Arial" font-size="12" font-weight="400" font-style="normal" 
>
<rect x="441" y="520" width="106" height="98"/>
</g>
</g>

<g  clip-path="url(#clip22)" 
>
<g fill="#add5ed" fill-opacity="1" stroke="none" transform="matrix(1,0,0,1,66,71)"
font-family="Arial" font-size="12" font-weight="400" font-style="normal" 
>
<rect x="441" y="520" width="106" height="98"/>
</g>
</g>

<g  clip-path="url(#clip22)" 
>
<g fill="#9ac7e4" fill-opacity="1" stroke="none" transform="matrix(1,0,0,1,66,71)"
font-family="Arial" font-size="12" font-weight="400" font-style="normal" 
>
<rect x="441" y="520" width="106" height="98"/>
</g>
</g>

<g  clip-path="url(#clip22)" 
>
<g fill="#b9ddf1" fill-opacity="1" stroke="none" transform="matrix(1,0,0,1,66,71)"
font-family="Arial" font-size="12" font-weight="400" font-style="normal" 
>
<rect x="300" y="380" width="106" height="238"/>
</g>
</g>

<g  clip-path="url(#clip22)" 
>
<g fill="#8ebcdd" fill-opacity="1" stroke="none" transform="matrix(1,0,0,1,66,71)"
font-family="Arial" font-size="12" font-weight="400" font-style="normal" 
>
<rect x="300" y="380" width="106" height="238"/>
</g>
</g>

<g  clip-path="url(#clip22)" 
>
<g fill="#9bc8e5" fill-opacity="1" stroke="none" transform="matrix(1,0,0,1,66,71)"
font-family="Arial" font-size="12" font-weight="400" font-style="normal" 
>
<rect x="300" y="380" width="106" height="238"/>
</g>
</g>

<g  clip-path="url(#clip22)" 
>
<g fill="#75a6cc" fill-opacity="1" stroke="none" transform="matrix(1,0,0,1,66,71)"
font-family="Arial" font-size="12" font-weight="400" font-style="normal" 
>
<rect x="300" y="380" width="106" height="238"/>
</g>
</g>

<g  clip-path="url(#clip22)" 
>
<g fill="#b9ddf1" fill-opacity="1" stroke="none" transform="matrix(1,0,0,1,66,71)"
font-family="Arial" font-size="12" font-weight="400" font-style="normal" 
>
<rect x="159" y="169" width="106" height="449"/>
</g>
</g>

<g  clip-path="url(#clip22)" 
>
<g fill="#6293bd" fill-opacity="1" stroke="none" transform="matrix(1,0,0,1,66,71)"
font-family="Arial" font-size="12" font-weight="400" font-style="normal" 
>
<rect x="159" y="169" width="106" height="449"/>
</g>
</g>

<g  clip-path="url(#clip22)" 
>
<g fill="#91bfdf" fill-opacity="1" stroke="none" transform="matrix(1,0,0,1,66,71)"
font-family="Arial" font-size="12" font-weight="400" font-style="normal" 
>
<rect x="159" y="169" width="106" height="449"/>
</g>
</g>

<g  clip-path="url(#clip22)" 
>
<g fill="#4675a3" fill-opacity="1" stroke="none" transform="matrix(1,0,0,1,66,71)"
font-family="Arial" font-size="12" font-weight="400" font-style="normal" 
>
<rect x="159" y="169" width="106" height="449"/>
</g>
</g>

<g  clip-path="url(#clip22)" 
>
<g fill="#b9ddf1" fill-opacity="1" stroke="none" transform="matrix(1,0,0,1,66,71)"
font-family="Arial" font-size="12" font-weight="400" font-style="normal" 
>
<rect x="18" y="30" width="106" height="588"/>
</g>
</g>

<g  clip-path="url(#clip22)" 
>
<g fill="#4372a0" fill-opacity="1" stroke="none" transform="matrix(1,0,0,1,66,71)"
font-family="Arial" font-size="12" font-weight="400" font-style="normal" 
>
<rect x="18" y="30" width="106" height="588"/>
</g>
</g>

<g  clip-path="url(#clip22)" 
>
<g fill="#93c1e1" fill-opacity="1" stroke="none" transform="matrix(1,0,0,1,66,71)"
font-family="Arial" font-size="12" font-weight="400" font-style="normal" 
>
<rect x="18" y="30" width="106" height="588"/>
</g>
</g>

<g  clip-path="url(#clip22)" 
>
<g fill="#2a5783" fill-opacity="1" stroke="none" transform="matrix(1,0,0,1,66,71)"
font-family="Arial" font-size="12" font-weight="400" font-style="normal" 
>
<rect x="18" y="30" width="106" height="588"/>
</g>
</g>

<clipPath id ="clip23" >
<rect x="0" y="0" height="619" width="848" transform="matrix(1,0,0,1,66,71)" />
</clipPath>
<g  clip-path="url(#clip23)" 
>
<g fill="#2a5783" fill-opacity="1" stroke="none" transform="matrix(1,0,0,1,66,71)"
font-family="Arial" font-size="12" font-weight="400" font-style="normal" 
>
</g>
</g>

<clipPath id ="clip24" >
<rect x="0" y="0" height="619" width="848" transform="matrix(1,0,0,1,66,71)" />
</clipPath>
<g  clip-path="url(#clip24)" 
>
<g fill="#2a5783" fill-opacity="1" stroke="none" transform="matrix(1,0,0,1,66,71)"
font-family="Arial" font-size="12" font-weight="400" font-style="normal" 
>
</g>
</g>

<clipPath id ="clip25" >
<rect x="0" y="0" height="618" width="847" transform="matrix(1,0,0,1,66,71)" />
</clipPath>
<g  clip-path="url(#clip25)" 
>
<g fill="#2a5783" fill-opacity="1" stroke="none" transform="matrix(1,0,0,1,66,71)"
font-family="Arial" font-size="12" font-weight="400" font-style="normal" 
>
</g>
</g>

<clipPath id ="clip26" >
<rect x="0" y="0" height="619" width="848" transform="matrix(1,0,0,1,66,71)" />
</clipPath>
<g  clip-path="url(#clip26)" 
>
<g fill="#2a5783" fill-opacity="1" stroke="none" transform="matrix(1,0,0,1,66,71)"
font-family="Arial" font-size="12" font-weight="400" font-style="normal" 
>
</g>
</g>

<clipPath id ="clip27" >
<rect x="0" y="0" height="618" width="847" transform="matrix(1,0,0,1,66,71)" />
</clipPath>
<g  clip-path="url(#clip27)" 
>
<g fill="#2a5783" fill-opacity="1" stroke="none" transform="matrix(1,0,0,1,66,71)"
font-family="Arial" font-size="12" font-weight="400" font-style="normal" 
>
</g>
</g>

<clipPath id ="clip28" >
<rect x="0" y="0" height="619" width="848" transform="matrix(1,0,0,1,66,71)" />
</clipPath>
<g  clip-path="url(#clip28)" 
>
<g fill="#2a5783" fill-opacity="1" stroke="none" transform="matrix(1,0,0,1,66,71)"
font-family="Arial" font-size="12" font-weight="400" font-style="normal" 
>
</g>
</g>

<clipPath id ="clip29" >
<rect x="0" y="0" height="618" width="847" transform="matrix(1,0,0,1,66,71)" />
</clipPath>
<g  clip-path="url(#clip29)" 
>
<g fill="#2a5783" fill-opacity="1" stroke="none" transform="matrix(1,0,0,1,66,71)"
font-family="Arial" font-size="12" font-weight="400" font-style="normal" 
>
</g>
</g>

<clipPath id ="clip30" >
<rect x="0" y="0" height="619" width="848" transform="matrix(1,0,0,1,66,71)" />
</clipPath>
<g  clip-path="url(#clip30)" 
>
<g fill="#2a5783" fill-opacity="1" stroke="none" transform="matrix(1,0,0,1,66,71)"
font-family="Arial" font-size="12" font-weight="400" font-style="normal" 
>
</g>
</g>

<clipPath id ="clip31" >
<rect x="0" y="0" height="619" width="848" transform="matrix(1,0,0,1,66,71)" />
</clipPath>
<g  clip-path="url(#clip31)" 
>
<g fill="#2a5783" fill-opacity="1" stroke="none" transform="matrix(1,0,0,1,66,71)"
font-family="Arial" font-size="12" font-weight="400" font-style="normal" 
>
</g>
</g>

<clipPath id ="clip32" >
<rect x="0" y="0" height="618" width="847" transform="matrix(1,0,0,1,66,71)" />
</clipPath>
<g  clip-path="url(#clip32)" 
>
<g fill="#2a5783" fill-opacity="1" stroke="none" transform="matrix(1,0,0,1,66,71)"
font-family="Arial" font-size="12" font-weight="400" font-style="normal" 
>
</g>
</g>

<clipPath id ="clip33" >
<rect x="0" y="0" height="619" width="848" transform="matrix(1,0,0,1,66,71)" />
</clipPath>
<g  clip-path="url(#clip33)" 
>
<g fill="#2a5783" fill-opacity="1" stroke="none" transform="matrix(1,0,0,1,66,71)"
font-family="Arial" font-size="12" font-weight="400" font-style="normal" 
>
</g>
</g>

<clipPath id ="clip34" >
<rect x="0" y="0" height="618" width="847" transform="matrix(1,0,0,1,66,71)" />
</clipPath>
<g  clip-path="url(#clip34)" 
>
<g fill="#2a5783" fill-opacity="1" stroke="none" transform="matrix(1,0,0,1,66,71)"
font-family="Arial" font-size="12" font-weight="400" font-style="normal" 
>
</g>
</g>

<clipPath id ="clip35" >
<rect x="0" y="0" height="619" width="848" transform="matrix(1,0,0,1,66,71)" />
</clipPath>
<g  clip-path="url(#clip35)" 
>
<g fill="#2a5783" fill-opacity="1" stroke="none" transform="matrix(1,0,0,1,66,71)"
font-family="Arial" font-size="12" font-weight="400" font-style="normal" 
>
</g>
</g>

<clipPath id ="clip36" >
<rect x="0" y="0" height="618" width="847" transform="matrix(1,0,0,1,66,71)" />
</clipPath>
<g  clip-path="url(#clip36)" 
>
<g fill="#2a5783" fill-opacity="1" stroke="none" transform="matrix(1,0,0,1,66,71)"
font-family="Arial" font-size="12" font-weight="400" font-style="normal" 
>
</g>
</g>

<clipPath id ="clip37" >
<rect x="0" y="0" height="619" width="848" transform="matrix(1,0,0,1,66,71)" />
</clipPath>
<g  clip-path="url(#clip37)" 
>
<g fill="#2a5783" fill-opacity="1" stroke="none" transform="matrix(1,0,0,1,66,71)"
font-family="Arial" font-size="12" font-weight="400" font-style="normal" 
>
</g>
</g>

<clipPath id ="clip38" >
<rect x="0" y="0" height="619" width="848" transform="matrix(1,0,0,1,66,71)" />
</clipPath>
<g  clip-path="url(#clip38)" 
>
<g fill="#2a5783" fill-opacity="1" stroke="none" transform="matrix(1,0,0,1,66,71)"
font-family="Arial" font-size="12" font-weight="400" font-style="normal" 
>
</g>
</g>

<clipPath id ="clip39" >
<rect x="0" y="0" height="618" width="847" transform="matrix(1,0,0,1,66,71)" />
</clipPath>
<g  clip-path="url(#clip39)" 
>
<g fill="#2a5783" fill-opacity="1" stroke="none" transform="matrix(1,0,0,1,66,71)"
font-family="Arial" font-size="12" font-weight="400" font-style="normal" 
>
</g>
</g>

<clipPath id ="clip40" >
<rect x="0" y="0" height="619" width="848" transform="matrix(1,0,0,1,66,71)" />
</clipPath>
<g  clip-path="url(#clip40)" 
>
<g fill="#2a5783" fill-opacity="1" stroke="none" transform="matrix(1,0,0,1,66,71)"
font-family="Arial" font-size="12" font-weight="400" font-style="normal" 
>
</g>
</g>

<clipPath id ="clip41" >
<rect x="0" y="0" height="618" width="847" transform="matrix(1,0,0,1,66,71)" />
</clipPath>
<g  clip-path="url(#clip41)" 
>
<g fill="#2a5783" fill-opacity="1" stroke="none" transform="matrix(1,0,0,1,66,71)"
font-family="Arial" font-size="12" font-weight="400" font-style="normal" 
>
</g>
</g>

<clipPath id ="clip42" >
<rect x="0" y="0" height="619" width="848" transform="matrix(1,0,0,1,66,71)" />
</clipPath>
<g  clip-path="url(#clip42)" 
>
<g fill="#2a5783" fill-opacity="1" stroke="none" transform="matrix(1,0,0,1,66,71)"
font-family="Arial" font-size="12" font-weight="400" font-style="normal" 
>
</g>
</g>

<clipPath id ="clip43" >
<rect x="0" y="0" height="618" width="847" transform="matrix(1,0,0,1,66,71)" />
</clipPath>
<g  clip-path="url(#clip43)" 
>
<g fill="#2a5783" fill-opacity="1" stroke="none" transform="matrix(1,0,0,1,66,71)"
font-family="Arial" font-size="12" font-weight="400" font-style="normal" 
>
</g>
</g>

<clipPath id ="clip44" >
<rect x="0" y="0" height="619" width="848" transform="matrix(1,0,0,1,66,71)" />
</clipPath>
<g  clip-path="url(#clip44)" 
>
<g fill="#2a5783" fill-opacity="1" stroke="none" transform="matrix(1,0,0,1,66,71)"
font-family="Arial" font-size="12" font-weight="400" font-style="normal" 
>
</g>
</g>

<clipPath id ="clip45" >
<rect x="0" y="0" height="619" width="848" transform="matrix(1,0,0,1,66,71)" />
</clipPath>
<g  clip-path="url(#clip45)" 
>
<g fill="#2a5783" fill-opacity="1" stroke="none" transform="matrix(1,0,0,1,66,71)"
font-family="Arial" font-size="12" font-weight="400" font-style="normal" 
>
</g>
</g>

<clipPath id ="clip46" >
<rect x="0" y="0" height="618" width="847" transform="matrix(1,0,0,1,66,71)" />
</clipPath>
<g  clip-path="url(#clip46)" 
>
<g fill="#2a5783" fill-opacity="1" stroke="none" transform="matrix(1,0,0,1,66,71)"
font-family="Arial" font-size="12" font-weight="400" font-style="normal" 
>
</g>
</g>

<clipPath id ="clip47" >
<rect x="0" y="0" height="619" width="848" transform="matrix(1,0,0,1,66,71)" />
</clipPath>
<g  clip-path="url(#clip47)" 
>
<g fill="#2a5783" fill-opacity="1" stroke="none" transform="matrix(1,0,0,1,66,71)"
font-family="Arial" font-size="12" font-weight="400" font-style="normal" 
>
</g>
</g>

<clipPath id ="clip48" >
<rect x="0" y="0" height="618" width="847" transform="matrix(1,0,0,1,66,71)" />
</clipPath>
<g  clip-path="url(#clip48)" 
>
<g fill="#2a5783" fill-opacity="1" stroke="none" transform="matrix(1,0,0,1,66,71)"
font-family="Arial" font-size="12" font-weight="400" font-style="normal" 
>
</g>
</g>

<clipPath id ="clip49" >
<rect x="0" y="0" height="619" width="848" transform="matrix(1,0,0,1,66,71)" />
</clipPath>
<g  clip-path="url(#clip49)" 
>
<g fill="#2a5783" fill-opacity="1" stroke="none" transform="matrix(1,0,0,1,66,71)"
font-family="Arial" font-size="12" font-weight="400" font-style="normal" 
>
</g>
</g>

<clipPath id ="clip50" >
<rect x="0" y="0" height="618" width="847" transform="matrix(1,0,0,1,66,71)" />
</clipPath>
<g  clip-path="url(#clip50)" 
>
<g fill="#2a5783" fill-opacity="1" stroke="none" transform="matrix(1,0,0,1,66,71)"
font-family="Arial" font-size="12" font-weight="400" font-style="normal" 
>
</g>
</g>

<clipPath id ="clip51" >
<rect x="0" y="0" height="619" width="848" transform="matrix(1,0,0,1,66,71)" />
</clipPath>
<g  clip-path="url(#clip51)" 
>
<g fill="#2a5783" fill-opacity="1" stroke="none" transform="matrix(1,0,0,1,66,71)"
font-family="Arial" font-size="12" font-weight="400" font-style="normal" 
>
</g>
</g>

<clipPath id ="clip52" >
<rect x="0" y="0" height="619" width="848" transform="matrix(1,0,0,1,66,71)" />
</clipPath>
<g  clip-path="url(#clip52)" 
>
<g fill="#2a5783" fill-opacity="1" stroke="none" transform="matrix(1,0,0,1,66,71)"
font-family="Arial" font-size="12" font-weight="400" font-style="normal" 
>
</g>
</g>

<clipPath id ="clip53" >
<rect x="0" y="0" height="619" width="848" transform="matrix(1,0,0,1,66,71)" />
</clipPath>
<g  clip-path="url(#clip53)" 
>
<g fill="#2a5783" fill-opacity="1" stroke="none" transform="matrix(1,0,0,1,66,71)"
font-family="Arial" font-size="12" font-weight="400" font-style="normal" 
>
</g>
</g>

<g  clip-path="url(#clip53)" 
>
<g fill="none" stroke="#f5f5f5" stroke-opacity="1" stroke-width="1" stroke-linecap="square" stroke-linejoin="bevel" transform="matrix(1,0,0,1,66,71)"
font-family="Arial" font-size="12" font-weight="400" font-style="normal" 
>
<polyline fill="none" vector-effect="none" points="0,618 847,618 " />
<polyline fill="none" vector-effect="none" points="0,0 0,618 " />
</g>
</g>

<clipPath id ="clip54" >
<rect x="0" y="0" height="619" width="848" transform="matrix(1,0,0,1,66,71)" />
</clipPath>
<g  clip-path="url(#clip54)" 
>
<g fill="none" stroke="#f5f5f5" stroke-opacity="1" stroke-width="1" stroke-linecap="square" stroke-linejoin="bevel" transform="matrix(1,0,0,1,66,71)"
font-family="Arial" font-size="12" font-weight="400" font-style="normal" 
>
</g>
</g>

<g >
<g fill="none" stroke="#f5f5f5" stroke-opacity="1" stroke-width="1" stroke-linecap="square" stroke-linejoin="bevel" transform="matrix(1,0,0,1,66,71)"
font-family="Arial" font-size="12" font-weight="400" font-style="normal" 
>
</g>
</g>

<g >
<g fill="none" stroke="#333333" stroke-opacity="1" stroke-width="1" stroke-linecap="square" stroke-linejoin="bevel" transform="matrix(1,0,0,1,0,0)"
font-family="Arial" font-size="20" font-weight="400" font-style="normal" 
>
<text fill="#333333" fill-opacity="1" stroke="none" xml:space="preserve" x="379.875" y="29" font-family="Arial" font-size="20" font-weight="400" font-style="normal" 
 >Word Frequency:</text>
</g>
</g>

<g >
<g fill="none" stroke="#333333" stroke-opacity="1" stroke-width="1" stroke-linecap="square" stroke-linejoin="bevel" transform="matrix(1,0,0,1,0,0)"
font-family="Arial" font-size="20" font-weight="400" font-style="normal" 
>
<text fill="#333333" fill-opacity="1" stroke="none" xml:space="preserve" x="154.969" y="52" font-family="Arial" font-size="20" font-weight="400" font-style="normal" 
 >Adressing Terms from 2010s and 2020s NEH Proposal Descriptions</text>
</g>
</g>

<g >
<g fill="none" stroke="#666666" stroke-opacity="1" stroke-width="1" stroke-linecap="square" stroke-linejoin="bevel" transform="matrix(1,0,0,1,0,0)"
font-family="Arial" font-size="12" font-weight="400" font-style="normal" 
>
<text fill="#666666" fill-opacity="1" stroke="none" xml:space="preserve" x="0" y="748" font-family="Arial" font-size="12" font-weight="400" font-style="normal" 
 >All Years for each Term.  Color shows 2010s, 2020s, count of Sheet2 and All Years. The view is filtered on Term, which excludes African American / Black, Hispanic /</text>
</g>
</g>

<g >
<g fill="none" stroke="#666666" stroke-opacity="1" stroke-width="1" stroke-linecap="square" stroke-linejoin="bevel" transform="matrix(1,0,0,1,0,0)"
font-family="Arial" font-size="12" font-weight="400" font-style="normal" 
>
<text fill="#666666" fill-opacity="1" stroke="none" xml:space="preserve" x="0" y="762" font-family="Arial" font-size="12" font-weight="400" font-style="normal" 
 >LatinX and Native American.</text>
</g>
</g>
</g>
</svg>
